<svg width="70" height="70" viewBox="0 0 70 70" xmlns="http://www.w3.org/2000/svg" xmlns:xlink="http://www.w3.org/1999/xlink"><title>icon_eff</title><defs><path id="b" d="M0 0h70v70H0z"/><path d="M70 35C70 15.67 54.33 0 35 0a34.805 34.805 0 0 0-16.93 4.36C7.295 10.326 0 21.81 0 35" id="a"/><mask id="d" x="0" y="0" width="70" height="35" fill="#fff"><use xlink:href="#a"/></mask></defs><g fill="none" fill-rule="evenodd"><mask id="c" fill="#fff"><use xlink:href="#b"/></mask><g mask="url(#c)"><use stroke="#75767A" mask="url(#d)" stroke-width="4" stroke-dasharray="2,2" xlink:href="#a"/><path d="M35 0c19.33 0 35 15.67 35 35S54.33 70 35 70 0 54.33 0 35C0 21.617 7.51 9.99 18.547 4.1l.942 1.765C8.81 11.562 2 22.678 2 35c0 18.225 14.775 33 33 33s33-14.775 33-33S53.225 2 35 2V0zm0 0c19.33 0 35 15.67 35 35S54.33 70 35 70 0 54.33 0 35C0 21.617 7.51 9.99 18.547 4.1l.942 1.765C8.81 11.562 2 22.678 2 35c0 18.225 14.775 33 33 33s33-14.775 33-33S53.225 2 35 2V0z" fill="#FF6300" fill-rule="nonzero"/><circle stroke="#75767A" stroke-width="2" cx="42" cy="42" r="4"/><path d="M44 26L26 44l18-18z" stroke="#75767A" stroke-width="2" stroke-linecap="square"/><circle stroke="#75767A" stroke-width="2" cx="28" cy="28" r="4"/></g></g></svg>