<svg width="25" height="22" viewBox="0 0 25 22" xmlns="http://www.w3.org/2000/svg"><title>Shape</title><path d="M.442 10.55l5.76 2.172 2.23 7.248a.675.675 0 0 0 1.077.327l3.21-2.646a.95.95 0 0 1 1.167-.032l5.792 4.25c.398.293.963.072 1.063-.415L24.985.827c.11-.532-.408-.976-.91-.78L.436 9.265c-.584.228-.58 1.062.007 1.284zm7.63 1.015l11.26-7.008c.2-.125.41.15.235.314l-9.29 8.73a1.953 1.953 0 0 0-.598 1.165l-.317 2.37c-.042.317-.482.348-.57.042l-1.216-4.323c-.14-.493.064-1.02.495-1.29z" fill-rule="nonzero" fill="#FFF"/></svg>