<svg width="30" height="24" viewBox="0 0 30 24" xmlns="http://www.w3.org/2000/svg"><title>Github__x28_alt_x29_</title><path d="M21.903.166c.39.883.643 2.348.266 3.42 1.54 1.313 2.07 4.502 1.326 7.107 2.197.167 4.815-.08 6.504.592-1.58-.202-3.736-.6-5.773-.46-.386.025-.958-.016-.93.525 2.358.185 4.7.386 6.637.988-1.92-.313-4.25-.79-6.637-.855-.986 1.938-2.97 2.89-5.708 3.09.294.64.857.882.995 1.91.205 1.533-.32 3.78.198 4.8.25.49.656.504.93.923-.67.79-2.333-.09-2.523-.922-.324-1.426.494-3.638-.397-4.605.063 1.555-.37 3.74.066 5.13.17.547.667.758.53 1.25-3.117.317-1.814-4.02-2.324-6.578-.47.033-.263.7-.265.987-.012 2.498.514 5.925-2.19 5.59-.078-.524.364-.702.532-1.182.493-1.406-.092-3.502.134-5.198-1.032.775.108 3.48-.53 4.868-.37.798-1.557 1.146-2.457.79.116-.595.732-.5.994-1.053.365-.772.002-1.885.133-3.026-1.91.38-3.39-.057-4.116-1.252-.324-.536-.404-1.17-.796-1.644-.39-.476-1.013-.54-1.194-1.183 2.365-.567 2.456 2.426 4.58 2.5.65.023.99-.187 1.592-.33.17-.753.53-1.316 1.062-1.71-2.643-.36-4.825-1.18-5.84-3.157-2.403.118-4.602.438-6.638.92 1.848-.668 4.128-.908 6.572-.987-.144-.862-1.407-.625-2.19-.592-1.457.064-3.29.244-4.448.46 1.678-.595 4.033-.52 6.306-.526-.695-2.172-.454-5.622 1.062-6.907-.43-1.08-.296-2.844.265-3.684 1.693.076 2.72.81 3.784 1.514 1.32-.374 2.706-.56 4.513-.46.76.04 1.55.38 2.123.327.562-.052 1.18-.68 1.726-.92.71-.312 1.31-.432 2.123-.46z" fill="#FFF" fill-rule="evenodd"/></svg>