<svg width="28" height="23" viewBox="0 0 28 23" xmlns="http://www.w3.org/2000/svg" xmlns:xlink="http://www.w3.org/1999/xlink"><title>Twitter_icn</title><defs><path id="a" d="M0 .08h27.105v22.025H0"/></defs><g fill="none" fill-rule="evenodd"><mask id="b" fill="#fff"><use xlink:href="#a"/></mask><path d="M27.105 2.69c-.997.44-2.07.74-3.194.874A5.576 5.576 0 0 0 26.357.488a11.135 11.135 0 0 1-3.53 1.35A5.554 5.554 0 0 0 18.765.08 5.56 5.56 0 0 0 13.35 6.91a15.788 15.788 0 0 1-11.463-5.81 5.533 5.533 0 0 0-.753 2.796c0 1.93.982 3.63 2.474 4.628a5.54 5.54 0 0 1-2.52-.695v.07a5.564 5.564 0 0 0 4.46 5.45 5.573 5.573 0 0 1-2.51.097 5.567 5.567 0 0 0 5.195 3.86 11.16 11.16 0 0 1-6.906 2.38c-.45 0-.892-.025-1.327-.077a15.742 15.742 0 0 0 8.524 2.498c10.23 0 15.822-8.472 15.822-15.82 0-.24-.005-.48-.016-.718a11.3 11.3 0 0 0 2.775-2.878" fill="#FFF" mask="url(#b)"/></g></svg>