<svg width="25" height="25" viewBox="0 0 25 25" xmlns="http://www.w3.org/2000/svg"><title>Dribbble</title><path d="M12.474 0C5.584 0 0 5.585 0 12.475 0 19.363 5.584 24.95 12.474 24.95c6.89 0 12.474-5.587 12.475-12.475C24.947 5.585 19.362 0 12.473 0zm7.643 6.468a9.66 9.66 0 0 1 2.075 5.55c-1.408-.3-2.738-.445-3.98-.445h-.008c-1 0-1.936.09-2.82.247a43.52 43.52 0 0 0-.65-1.516c1.966-.863 3.855-2.09 5.383-3.836zm-7.643-3.726c2.295 0 4.4.803 6.07 2.14-1.277 1.527-2.96 2.633-4.78 3.414-1.28-2.472-2.514-4.24-3.358-5.32a9.525 9.525 0 0 1 2.068-.234zm-4.3 1.015c.677.798 2.03 2.553 3.474 5.293-2.938.875-5.896 1.08-7.686 1.08H3.81c-.303 0-.562-.006-.778-.012a9.763 9.763 0 0 1 5.143-6.36zm-5.432 8.718c0-.046 0-.092.004-.14.278.01.634.02 1.063.02h.002c1.956-.014 5.372-.177 8.833-1.27.19.412.376.842.56 1.288a15.4 15.4 0 0 0-5.48 3.23 16.6 16.6 0 0 0-2.683 3.132 9.67 9.67 0 0 1-2.3-6.26zm9.732 9.733a9.665 9.665 0 0 1-5.782-1.92A14.037 14.037 0 0 1 8.95 17.51c1.21-1.16 2.878-2.352 5.057-3.062.74 2.077 1.41 4.45 1.922 7.122a9.68 9.68 0 0 1-3.456.638zm5.508-1.73a50.05 50.05 0 0 0-1.796-6.538 14.02 14.02 0 0 1 1.996-.142H18.21c1.16 0 2.437.144 3.82.458a9.73 9.73 0 0 1-4.048 6.223z" fill="#FFF" fill-rule="evenodd"/></svg>