<svg width="30" height="19" viewBox="0 0 30 19" xmlns="http://www.w3.org/2000/svg"><title>Behance</title><path d="M27.037 2.667h-7.502V.794h7.503v1.873zm-12.496 7.68c.485.754.727 1.67.727 2.743 0 1.11-.272 2.107-.827 2.988a5.17 5.17 0 0 1-1.318 1.47c-.593.458-1.295.772-2.102.94-.81.168-1.686.253-2.63.253H0V.018h8.997c2.267.037 3.875.698 4.824 1.995.57.795.853 1.75.853 2.86 0 1.144-.286 2.06-.86 2.755-.32.39-.793.746-1.42 1.066.95.35 1.668.898 2.148 1.654zM4.297 7.4h3.942c.81 0 1.465-.156 1.97-.465.503-.31.755-.858.755-1.646 0-.872-.333-1.45-1-1.728-.575-.194-1.31-.293-2.2-.293H4.296V7.4zm7.046 5.422c0-.972-.395-1.645-1.184-2.005-.442-.205-1.065-.31-1.863-.318h-4v4.99h3.938c.81 0 1.435-.107 1.886-.33.814-.407 1.222-1.184 1.222-2.338zM29.82 9.776c.09.613.132 1.502.115 2.663H20.22c.054 1.347.516 2.29 1.394 2.83.53.338 1.172.503 1.924.503.792 0 1.438-.202 1.936-.616.27-.22.51-.53.716-.92h3.56c-.092.796-.52 1.604-1.29 2.424-1.195 1.305-2.87 1.96-5.02 1.96-1.776 0-3.34-.552-4.7-1.65-1.354-1.104-2.035-2.893-2.035-5.374 0-2.327.61-4.108 1.836-5.347 1.23-1.243 2.82-1.86 4.775-1.86 1.16 0 2.205.207 3.138.626.93.42 1.698 1.08 2.303 1.986.548.8.9 1.722 1.064 2.774zm-3.505.35c-.065-.932-.375-1.638-.932-2.12-.553-.483-1.244-.726-2.068-.726-.897 0-1.59.26-2.08.77-.497.508-.805 1.2-.932 2.076h6.012z" fill="#FFF" fill-rule="evenodd"/></svg>