<svg id="Layer_1" xmlns="http://www.w3.org/2000/svg" width="28" height="23" viewBox="4 -1 28 23"><style>.st0{fill:#FFF}</style><path id="Fill-1" class="st0" d="M31.1 1.7c-1 .4-2.1.7-3.2.9 1.1-.7 2-1.8 2.4-3.1C29.2.1 28 .6 26.8.8a5.59 5.59 0 0 0-9.7 3.8c0 .4 0 .9.1 1.3C12.7 5.7 8.6 3.5 5.9.1c-.5.8-.8 1.8-.8 2.8 0 1.9 1 3.6 2.5 4.6-.9 0-1.8-.3-2.5-.7v.1c0 2.7 1.9 4.9 4.5 5.5-.5.1-1 .2-1.5.2-.4 0-.7 0-1-.1.7 2.2 2.8 3.8 5.2 3.9-1.9 1.5-4.3 2.4-6.9 2.4-.4 0-.9 0-1.3-.1 2.5 1.6 5.4 2.5 8.5 2.5 10.2 0 15.8-8.5 15.8-15.8v-.7c1-.9 2-1.9 2.7-3"/></svg>