<svg xmlns="http://www.w3.org/2000/svg" width="56" height="102" viewBox="0 0 56 102"><g fill="none" fill-rule="evenodd"><rect width="54" height="88" x="1" y="7" stroke="#ffffff" stroke-width="2" rx="4"/><rect width="44" height="64" x="6" y="17" stroke="#ffffff" stroke-width="2" rx="4"/><path fill="#ffffff" fill-rule="nonzero" d="M27 0v4h2V0h-2zm0 7v4h2V7h-2zm0 7v4h2v-4h-2zm0 7v4h2v-4h-2zm0 7v4h2v-4h-2zm0 7v4h2v-4h-2zm0 7v4h2v-4h-2zm0 7v4h2v-4h-2zm0 7v4h2v-4h-2zm0 7v4h2v-4h-2zm0 7v4h2v-4h-2zm0 7v4h2v-4h-2zm0 7v4h2v-4h-2zm0 7v4h2v-4h-2zm0 7v4h2v-4h-2z"/></g></svg>