<?xml version="1.0" encoding="utf-8"?>
<svg viewBox="0 0 70 70" xmlns="http://www.w3.org/2000/svg">
  <defs>
    <mask id="b" width="70" height="70" x="0" y="0" fill="#fff">
      <path d="M0 0h70v70H0z"/>
    </mask>
  </defs>
  <g fill="none" fill-rule="evenodd" transform="matrix(1, 0, 0, 1, 0, 8.881784197001252e-16)">
    <path d="M0 0h70v70H0z" stroke="#5E6064" stroke-dasharray="2,2" stroke-width="4" mask="url(#b)"/>
    <path fill-rule="nonzero" d="M55 18a3 3 0 1 0 0-6 3 3 0 0 0 0 6zm0 2a5 5 0 1 1 0-10 5 5 0 0 1 0 10z" style="fill: rgb(255, 255, 255);"/>
    <path stroke="#5E6064" stroke-dasharray="2,2" stroke-width="2" d="M50 20c-7 7-13.167 12-18.5 15s-12.667 4.5-22 4.5"/>
    <path fill-rule="nonzero" d="M52 32v26h6V32h-6zm-2-2h10v30H50V30z" style="fill: rgb(255, 255, 255);"/>
    <path d="M10 10h10v10H10z" style="fill: rgb(255, 255, 255);"/>
    <path fill="#5E6064" fill-rule="nonzero" d="M12 58h6v-6h-6v6zm-2-8h10v10H10V50zm22-3v11h6V47h-6zm-2-2h10v15H30V45z"/>
  </g>
</svg>