<?xml version="1.0" encoding="utf-8"?>
<svg viewBox="0 0 70 70" xmlns="http://www.w3.org/2000/svg">
  <defs>
    <mask id="b" width="70" height="70" x="0" y="0" fill="#fff">
      <path d="M0 0h70v70H0z"/>
    </mask>
  </defs>
  <g fill="none" fill-rule="evenodd" transform="matrix(1, 0, 0, 1, 0, 8.881784197001252e-16)">
    <path d="M0 0h70v70H0z" stroke="#5E6064" stroke-dasharray="2,2" stroke-width="4" mask="url(#b)"/>
    <path fill="#5E6064" fill-rule="nonzero" d="M50.293 18.293l-1.414 1.414 1.413 1.414 1.414-1.413-1.414-1.414zm-2.83 2.828l-1.413 1.416 1.414 1.414 1.415-1.414-1.416-1.415zm-2.827 2.83l-1.414 1.414 1.414 1.414 1.414-1.414-1.414-1.414zm-2.828 2.828l-1.415 1.414 1.415 1.415 1.414-1.415-1.414-1.414zm-2.83 2.83l-1.413 1.413 1.414 1.415 1.413-1.414-1.414-1.413zm-2.827 2.827l-1.413 1.414 1.414 1.413 1.415-1.414-1.414-1.415zm-2.828 2.828l-1.414 1.415 1.414 1.414 1.415-1.414-1.415-1.415zm-2.828 2.83l-1.2 1.2 1.413 1.414 1.2-1.2-1.413-1.415z"/>
    <path fill-rule="nonzero" d="M2 68h26V42H2v26zM0 40h30v30H0V40z" style="fill: rgb(255, 255, 255);"/>
    <path d="M50 10h10v10H50z" style="fill: rgb(255, 255, 255);"/>
    <path fill="#5E6064" fill-rule="nonzero" d="M12 58h6v-6h-6v6zm-2-8h10v10H10V50z"/>
  </g>
</svg>